<svg xmlns="http://www.w3.org/2000/svg" fill="none" viewBox="0 0 50 56">
  <path fill-rule="evenodd" clip-rule="evenodd" d="M29 4a4 4 0 01-.186 1.21l14.801 8.578A4 4 0 1147 20.874v15.252A4.002 4.002 0 0146 44a3.983 3.983 0 01-2.385-.788l-14.627 8.477a4 4 0 11-7.976 0L6.385 43.212A4 4 0 113 36.126V20.874A4.002 4.002 0 014 13c.894 0 1.719.293 2.385.788L21.186 5.21A4 4 0 1129 4zM7.652 15.366A4.002 4.002 0 015 20.874v15.252a4.002 4.002 0 012.652 5.508l14.03 8.131A4.006 4.006 0 0124 48.126V7.874a3.993 3.993 0 01-1.75-.969l-14.598 8.46zM45 20.874a4.002 4.002 0 01-2.652-5.508L27.75 6.906a3.993 3.993 0 01-1.75.968v40.252c.96.247 1.78.84 2.318 1.64l14.03-8.132A4.002 4.002 0 0145 36.126V20.874z" fill="#1C1C1E" fill-opacity=".5"/>
</svg>
