<svg width="18" height="14" viewBox="0 0 18 14" fill="none" xmlns="http://www.w3.org/2000/svg">
<path d="M17.4748 4.08428C17.1344 3.28684 16.6579 2.57708 16.0452 1.95457C15.4326 1.3419 14.7228 0.855611 13.9253 0.525002C13.1183 0.175137 12.243 0 11.3386 0C10.3663 0 9.43262 0.204224 8.55755 0.60284C7.76011 0.972369 7.05034 1.47812 6.4473 2.1295C6.1847 2.09058 5.91247 2.07112 5.64023 2.07112C4.88172 2.07112 4.14266 2.21697 3.44252 2.51849C2.77147 2.80055 2.16863 3.209 1.65325 3.73401C1.13788 4.24938 0.729431 4.85222 0.447368 5.5331C0.155677 6.23345 0 6.97251 0 7.73102C0 8.48954 0.145845 9.2286 0.447368 9.92874C0.729431 10.5998 1.13788 11.2026 1.65325 11.7278C2.16863 12.2432 2.77147 12.6807 3.44252 12.9628C4.14266 13.2545 4.88172 13.4296 5.64023 13.4296H11.329C12.2334 13.4296 13.1087 13.2254 13.9253 12.8753C14.7228 12.5349 15.4326 12.039 16.0452 11.4263C16.6579 10.8136 17.1442 10.094 17.4748 9.29661C17.8249 8.47008 18 7.59481 18 6.69044C18 5.78608 17.8249 4.9108 17.4748 4.08428V4.08428ZM5.64986 12.1555C3.22846 12.1555 1.26406 10.1717 1.26406 7.75028C1.26406 5.32888 3.22846 3.35485 5.64003 3.35485C6.76808 3.35485 7.79883 3.77292 8.5768 4.47306L10.5508 6.49585C10.7356 6.69024 10.7356 7.00159 10.5412 7.18636C10.3468 7.37112 10.0355 7.37112 9.8507 7.17673L7.88629 5.15395C7.29308 4.62874 6.50547 4.31759 5.64966 4.31759C3.77292 4.31759 2.24606 5.83463 2.24606 7.71136C2.24606 9.58809 3.77313 11.115 5.64986 11.115L6.73899 11.144C7.09889 11.5136 7.50714 11.8735 7.94488 12.1553H5.64986V12.1555ZM11.3386 12.0972C9.84107 12.0972 8.48934 11.4943 7.50713 10.5121L4.90097 7.89633C4.71621 7.70194 4.71621 7.39058 4.9106 7.20582C5.10499 7.02105 5.41635 7.02105 5.60111 7.21544L8.19765 9.81198C9.00471 10.619 10.1133 11.115 11.3386 11.115C13.7891 11.115 15.773 9.1311 15.773 6.68061C15.773 4.23012 13.7891 2.24626 11.3386 2.24626C10.2981 2.24626 9.33532 2.60616 8.5768 3.209C8.28511 3.01461 7.97396 2.85893 7.64335 2.72272C8.61572 1.81835 9.90907 1.26406 11.3386 1.26406C14.3338 1.26406 16.7552 3.68546 16.7552 6.68061C16.7552 9.67576 14.3338 12.0972 11.3386 12.0972Z" fill="#231F20"/>
</svg>
