<svg width="19" height="16" viewBox="0 0 19 16" fill="none" xmlns="http://www.w3.org/2000/svg">
<path fill-rule="evenodd" clip-rule="evenodd" d="M3.28892 7.79657L4.38169 6.75581L5.11976 7.53076L2.69669 9.83853L0.388916 7.41545L1.16387 6.67738L2.2172 7.78334C2.46822 3.78589 5.83829 0.669516 9.87706 0.767955C12.6364 0.835211 15.0102 2.38639 16.255 4.63718L15.3185 5.15512C14.2501 3.2232 12.215 1.89545 9.85098 1.83783C6.40751 1.7539 3.53114 4.39637 3.28892 7.79657ZM15.0072 9.76012L16.1001 8.71926C15.9402 10.9647 14.6315 12.8796 12.7694 13.8972L12.7689 13.8963C12.2686 14.1691 11.748 14.3685 11.2194 14.498C10.6816 14.6291 10.1179 14.6922 9.53802 14.6781L9.53799 14.6792C7.32128 14.6232 5.19405 13.4194 4.05611 11.3326L3.11653 11.8449C4.77886 14.8934 8.25081 16.3267 11.4714 15.5384C14.591 14.779 16.9627 12.0613 17.1718 8.73267L18.225 9.83855L19 9.10047L16.6922 6.67739L14.2692 8.98516L15.0072 9.76012ZM9.43487 11.3421L13.1387 5.32336L12.2637 4.78491L9.11827 9.89623L6.99305 8.47942L6.42316 9.33425L9.43487 11.3421Z" fill="#231F20"/>
</svg>
