<svg width="20" height="12" viewBox="0 0 20 12" fill="none" xmlns="http://www.w3.org/2000/svg">
<path fill-rule="evenodd" clip-rule="evenodd" d="M5.6362 4.34362C5.6362 4.58973 5.6628 4.78929 5.70936 4.93563C5.76258 5.08197 5.8291 5.24161 5.92222 5.41456C5.95548 5.46777 5.96878 5.52099 5.96878 5.56755C5.96878 5.63407 5.92887 5.70058 5.8424 5.7671L5.42334 6.04648C5.36347 6.08639 5.30361 6.10634 5.25039 6.10634C5.18387 6.10634 5.11736 6.07308 5.05084 6.01322C4.95771 5.91344 4.87789 5.80701 4.81137 5.70058C4.74486 5.5875 4.67834 5.46112 4.60517 5.30813C4.08633 5.92009 3.43445 6.22607 2.64954 6.22607C2.09079 6.22607 1.64512 6.06643 1.31918 5.74715C0.993247 5.42786 0.826952 5.00215 0.826952 4.47C0.826952 3.9046 1.02651 3.44563 1.43226 3.09973C1.83802 2.75384 2.37682 2.58089 3.06195 2.58089C3.28811 2.58089 3.52093 2.60085 3.76704 2.63411C4.01316 2.66737 4.26593 2.72058 4.532 2.78045V2.29487C4.532 1.78933 4.42557 1.43679 4.21936 1.23058C4.00651 1.02438 3.64731 0.924599 3.13512 0.924599C2.90231 0.924599 2.66285 0.951206 2.41673 1.01107C2.17061 1.07094 1.93115 1.14411 1.69834 1.23723C1.59191 1.2838 1.51209 1.3104 1.46552 1.32371C1.41896 1.33701 1.3857 1.34366 1.35909 1.34366C1.26597 1.34366 1.21941 1.27714 1.21941 1.13746V0.811518C1.21941 0.70509 1.23271 0.625268 1.26597 0.578706C1.29923 0.532143 1.35909 0.485581 1.45222 0.439018C1.68503 0.319286 1.96441 0.219509 2.29035 0.139688C2.61628 0.0532143 2.96218 0.0133036 3.32802 0.0133036C4.11959 0.0133036 4.69829 0.192902 5.07079 0.552098C5.43664 0.911295 5.62289 1.45674 5.62289 2.18844V4.34362H5.6362ZM2.93557 5.35469C3.15508 5.35469 3.38124 5.31478 3.6207 5.23496C3.86017 5.15514 4.07302 5.0088 4.25262 4.80924C4.35905 4.68286 4.43887 4.54317 4.47878 4.38353C4.51869 4.22389 4.5453 4.03098 4.5453 3.80482V3.52545C4.3524 3.47889 4.14619 3.43898 3.93334 3.41237C3.72048 3.38576 3.51427 3.37246 3.30807 3.37246C2.8624 3.37246 2.53646 3.45893 2.31695 3.63853C2.09744 3.81813 1.99101 4.0709 1.99101 4.40348C1.99101 4.71612 2.07084 4.94893 2.23713 5.10857C2.39677 5.27487 2.62959 5.35469 2.93557 5.35469ZM8.27696 6.07308C8.15722 6.07308 8.0774 6.05313 8.02419 6.00657C7.97097 5.96665 7.92441 5.87353 7.8845 5.74715L6.32133 0.605313C6.28142 0.472277 6.26146 0.385804 6.26146 0.339241C6.26146 0.232813 6.31468 0.172947 6.42111 0.172947H7.07298C7.19937 0.172947 7.28584 0.192902 7.3324 0.239464C7.38562 0.279375 7.42553 0.3725 7.46544 0.498884L8.58294 4.90237L9.62062 0.498884C9.65388 0.365848 9.69379 0.279375 9.747 0.239464C9.80021 0.199554 9.89334 0.172947 10.0131 0.172947H10.5452C10.6716 0.172947 10.7581 0.192902 10.8113 0.239464C10.8645 0.279375 10.9111 0.3725 10.9377 0.498884L11.9887 4.95558L13.1394 0.498884C13.1793 0.365848 13.2259 0.279375 13.2724 0.239464C13.3257 0.199554 13.4121 0.172947 13.5319 0.172947H14.1505C14.2569 0.172947 14.3168 0.226161 14.3168 0.339241C14.3168 0.367648 14.3119 0.396054 14.3064 0.428605L14.3035 0.44567C14.2968 0.485581 14.2835 0.538795 14.2569 0.611965L12.6538 5.7538C12.6139 5.88683 12.5674 5.97331 12.5141 6.01322C12.4609 6.05313 12.3745 6.07974 12.2614 6.07974H11.6893C11.5629 6.07974 11.4765 6.05978 11.4233 6.01322C11.37 5.96665 11.3235 5.88018 11.2969 5.74715L10.2658 1.45674L9.24147 5.74049C9.20821 5.87353 9.16829 5.96 9.11508 6.00657C9.06187 6.05313 8.96874 6.07308 8.84901 6.07308H8.27696ZM16.8245 6.25268C16.4786 6.25268 16.1327 6.21277 15.8001 6.13295C15.4675 6.05313 15.2081 5.96665 15.0352 5.86688C14.9287 5.80701 14.8556 5.74049 14.829 5.68063C14.8024 5.62076 14.7891 5.55424 14.7891 5.49438V5.15514C14.7891 5.01545 14.8423 4.94893 14.942 4.94893C14.982 4.94893 15.0219 4.95558 15.0618 4.96889C15.0876 4.97748 15.1217 4.99162 15.1605 5.00772C15.1818 5.01656 15.2045 5.02598 15.2281 5.0354C15.4542 5.13518 15.7004 5.215 15.9598 5.26822C16.2258 5.32143 16.4853 5.34804 16.7513 5.34804C17.1704 5.34804 17.4963 5.27487 17.7225 5.12853C17.9487 4.98219 18.0684 4.76933 18.0684 4.49661C18.0684 4.31036 18.0085 4.15737 17.8888 4.03098C17.7691 3.9046 17.5429 3.79152 17.217 3.68509L16.2525 3.38576C15.7669 3.23277 15.4077 3.00661 15.1882 2.70728C14.9687 2.4146 14.8556 2.08866 14.8556 1.74277C14.8556 1.46339 14.9154 1.21728 15.0352 1.00442C15.1549 0.791563 15.3145 0.605313 15.5141 0.458973C15.7137 0.305982 15.9398 0.192902 16.2059 0.11308C16.472 0.0332589 16.7513 0 17.044 0C17.1904 0 17.3433 0.00665179 17.4897 0.0266072C17.6427 0.0465625 17.7824 0.0731697 17.922 0.0997768C18.0551 0.133036 18.1815 0.166295 18.3012 0.206205C18.4209 0.246116 18.5141 0.286027 18.5806 0.325938C18.6737 0.379152 18.7402 0.432366 18.7801 0.492232C18.82 0.545447 18.84 0.618616 18.84 0.711741V1.02438C18.84 1.16406 18.7868 1.23723 18.687 1.23723C18.6338 1.23723 18.5473 1.21063 18.4342 1.15741C18.0551 0.984465 17.6294 0.897991 17.1571 0.897991C16.7779 0.897991 16.4786 0.957858 16.2724 1.08424C16.0662 1.21063 15.9598 1.40353 15.9598 1.67625C15.9598 1.8625 16.0263 2.02214 16.1593 2.14853C16.2924 2.27491 16.5385 2.4013 16.891 2.51438L17.8356 2.81371C18.3145 2.9667 18.6604 3.17956 18.8666 3.45228C19.0728 3.725 19.1726 4.03764 19.1726 4.38353C19.1726 4.66956 19.1127 4.92898 18.9996 5.15514C18.8799 5.3813 18.7203 5.58085 18.5141 5.74049C18.3079 5.90679 18.0617 6.02652 17.7757 6.11299C17.4764 6.20612 17.1637 6.25268 16.8245 6.25268ZM18.0817 9.48545C15.8933 11.1018 12.7137 11.9599 9.97981 11.9599C6.14838 11.9599 2.6961 10.5431 0.088603 8.18835C-0.117602 8.0021 0.0686476 7.74933 0.314764 7.89567C3.13512 9.53201 6.61401 10.5231 10.2126 10.5231C12.6405 10.5231 15.3079 10.0176 17.7624 8.97992C18.1283 8.81362 18.4409 9.21938 18.0817 9.48545ZM16.4321 8.3613C17.1438 8.27483 18.7136 8.08858 18.993 8.44777C19.2724 8.80032 18.6804 10.2837 18.4143 10.9422C18.3345 11.1417 18.5074 11.2216 18.687 11.0686C19.8577 10.0841 20.1637 8.02871 19.9242 7.72938C19.6848 7.4367 17.6294 7.18393 16.3788 8.06197C16.1859 8.20166 16.2192 8.38791 16.4321 8.3613Z" fill="#231F20"/>
</svg>
