<svg width="15" height="14" viewBox="0 0 15 14" fill="none" xmlns="http://www.w3.org/2000/svg">
<path fill-rule="evenodd" clip-rule="evenodd" d="M4.5397 0.133759C4.65946 0.0463179 4.80404 -0.000547782 4.95232 4.83148e-06H5.00564C5.00535 4.47645e-06 5.00507 4.30024e-06 5.00478 4.30291e-06H9.90479C10.0512 6.69973e-06 10.194 0.0459507 10.313 0.131366C10.432 0.216782 10.5212 0.337366 10.568 0.476137L14.8205 13.0761C14.856 13.1814 14.866 13.2937 14.8495 13.4036C14.8331 13.5135 14.7907 13.6179 14.7259 13.7082C14.6611 13.7985 14.5757 13.872 14.4768 13.9228C14.3779 13.9735 14.2684 14 14.1573 14H13.0409H9.25727H9.10778C8.94331 13.9986 8.78434 13.9406 8.65762 13.8358L5.63337 11.0152L4.7869 13.5101C4.74287 13.6355 4.66635 13.7469 4.56517 13.8329C4.46399 13.919 4.34177 13.9766 4.21101 14H0.70104C0.588757 14.0003 0.478052 13.9736 0.37829 13.922C0.278529 13.8705 0.192646 13.7957 0.127908 13.704C0.0631689 13.6122 0.0214786 13.5062 0.00636368 13.395C-0.00875129 13.2837 0.00315378 13.1704 0.0410717 13.0648L4.28664 0.486043C4.33127 0.344636 4.41994 0.221199 4.5397 0.133759ZM8.56882 9.07102L7.43108 5.69994L6.28712 9.07154L8.56882 9.07102Z" fill="#231F20"/>
</svg>
