<svg width="15" height="17" viewBox="0 0 15 17" fill="none" xmlns="http://www.w3.org/2000/svg">
<path fill-rule="evenodd" clip-rule="evenodd" d="M14.8247 12.7074C14.9408 12.4973 14.9991 12.2538 15 11.9792L15 11.9727C15 11.9727 15 7.3427 14.9992 5.02705C14.9992 5.00935 14.999 4.99177 14.9985 4.97433C14.9975 4.93936 14.9956 4.90492 14.9928 4.871C14.9742 4.65084 14.9155 4.45277 14.8159 4.27817L14.8159 4.27818C14.6954 4.06674 14.5151 3.88956 14.2732 3.74948C13.418 3.25638 12.5625 2.76393 11.707 2.27148L11.7067 2.27135L11.7051 2.2704L11.7049 2.27028L11.7044 2.26999C10.563 1.61302 9.42167 0.956041 8.28116 0.297532C7.74297 -0.0131707 7.22117 -0.00178486 6.68697 0.313378C6.20849 0.595527 4.57594 1.53404 3.09349 2.38627L3.09344 2.3863C2.11332 2.94974 1.19883 3.47546 0.72687 3.74883C0.238514 4.0316 0.000880344 4.46426 0.000762964 5.02656C0.000381482 6.18436 0.000381482 7.34216 0.000381482 8.49996C0.000381482 9.65776 0.000381482 10.8156 0 11.9734C0 12.2506 0.0581614 12.4963 0.175364 12.708C0.295854 12.9258 0.478731 13.1078 0.726225 13.2511C1.19585 13.5231 2.10367 14.0449 3.07831 14.6051C4.56481 15.4595 6.20678 16.4033 6.68674 16.6865C7.22117 17.0019 7.74297 17.0131 8.28133 16.7024C9.4399 16.0334 10.5994 15.3661 11.7588 14.6987L11.7591 14.6986L11.7593 14.6984L11.76 14.6981L11.7606 14.6977C12.5984 14.2155 13.4363 13.7332 14.2738 13.2504C14.5213 13.1072 14.7042 12.925 14.8247 12.7074ZM7.53908 2.92448C9.60167 2.92448 11.4024 4.04463 12.367 5.70965L12.3576 5.69363L9.9308 7.09091C9.45271 6.2814 8.57625 5.73506 7.57072 5.72379L7.53902 5.72362C6.00576 5.72362 4.76271 6.96666 4.76271 8.49993C4.76221 8.9832 4.88847 9.45815 5.12888 9.87737C5.60743 10.7128 6.50708 11.2763 7.53908 11.2763C8.56915 11.2763 9.46771 10.7148 9.94679 9.88155L12.3699 11.2853C11.4159 12.9362 9.63976 14.0529 7.60118 14.0751L7.53908 14.0755C5.46998 14.0755 3.6641 12.9484 2.70195 11.2746C2.23225 10.4575 1.96351 9.51015 1.96351 8.49993C1.96351 5.42072 4.4597 2.92442 7.53902 2.92442L7.53908 2.92448ZM9.94679 9.88155L9.94676 9.88154L9.95832 9.86129L9.94679 9.88155ZM11.8489 6.8959V7.68668H12.6397V6.8959H13.0351V7.68668H13.8259V8.08208H13.0351V8.8728H13.8259V9.26819H13.0351V10.059H12.6397V9.26819H11.8489V10.059H11.4536V9.26819H10.6628V8.8728H11.4536V8.08208H10.6628V7.68668H11.4536V6.8959H11.8489ZM12.6397 8.08202H11.8489V8.8728H12.6397V8.08202Z" fill="#231F20"/>
</svg>
