<svg width="22" height="16" viewBox="0 0 22 16" fill="none" xmlns="http://www.w3.org/2000/svg">
<path fill-rule="evenodd" clip-rule="evenodd" d="M9.47956 0H11.7399V2.26035H9.47956V0ZM9.47956 2.84157H11.7399V5.10192H9.47956V2.84157ZM11.7399 5.68315H9.47956V7.9435H11.7399V5.68315ZM6.73488 2.84157H8.9952V5.10192H6.73488V2.84157ZM8.9952 5.68315H6.73488V7.9435H8.9952V5.68315ZM3.99016 2.84157H6.25051V5.10192H3.99016V2.84157ZM6.25051 5.68315H3.99016V7.9435H6.25051V5.68315ZM1.27776 5.68315H3.5381V7.9435H1.27776V5.68315ZM14.4846 5.68315H12.2243V7.9435H14.4846V5.68315ZM0.0345277 8.67002C0.0345277 8.67002 -0.934191 16 7.39062 16C15.9861 16 18.5048 8.92841 18.5048 8.92841C18.5048 8.92841 21.2172 9.05752 21.8307 7.0555C20.7328 6.0545 18.9568 6.63572 18.9568 6.63572C18.9568 6.63572 19.0214 5.15036 17.2777 4.14934C15.7278 6.21594 17.0517 7.92735 17.0517 7.92735C17.0517 7.92735 16.2767 8.67002 13.9329 8.67002H0.0345277Z" fill="#231F20"/>
</svg>
