<svg width="32" height="32" viewBox="0 0 32 32" fill="none" xmlns="http://www.w3.org/2000/svg">
<path fill-rule="evenodd" clip-rule="evenodd" d="M18.5357 3.14286C18.5357 3.36885 18.5007 3.58667 18.4359 3.7912L26.3652 8.38663C26.722 8.12128 27.1641 7.96427 27.6429 7.96427C28.8263 7.96427 29.7857 8.92366 29.7857 10.1071C29.7857 11.1056 29.1028 11.9446 28.1785 12.1825V20.3532C29.1028 20.5911 29.7857 21.4301 29.7857 22.4286C29.7857 23.6121 28.8263 24.5714 27.6429 24.5714C27.1641 24.5714 26.722 24.4144 26.3652 24.1491L18.5293 28.6903C18.5336 28.7454 18.5357 28.801 18.5357 28.8571C18.5357 30.0406 17.5763 31 16.3929 31C15.2094 31 14.25 30.0406 14.25 28.8571C14.25 28.801 14.2522 28.7454 14.2564 28.6904L6.42042 24.1491C6.06369 24.4144 5.62161 24.5714 5.14286 24.5714C3.95939 24.5714 3 23.6121 3 22.4286C3 21.4301 3.68288 20.5912 4.60708 20.3533V12.1825C3.68288 11.9446 3 11.1056 3 10.1071C3 8.92366 3.95939 7.96427 5.14286 7.96427C5.6216 7.96427 6.06368 8.12127 6.42041 8.38658L14.3498 3.79113C14.285 3.58662 14.25 3.36882 14.25 3.14286C14.25 1.95939 15.2094 1 16.3929 1C17.5763 1 18.5357 1.95939 18.5357 3.14286ZM7.09924 9.23152C7.21907 9.49885 7.28571 9.79521 7.28571 10.1071C7.28571 11.1056 6.60277 11.9446 5.6785 12.1825V20.3532C6.60277 20.5911 7.28571 21.4301 7.28571 22.4286C7.28571 22.7405 7.21907 23.0369 7.09925 23.3042L14.6153 27.6601C14.904 27.2321 15.3433 26.914 15.8571 26.7818L15.8571 5.2182C15.5002 5.12633 15.1793 4.94484 14.9198 4.69914L7.09924 9.23152ZM27.1071 12.1825C26.1829 11.9446 25.5 11.1056 25.5 10.1071C25.5 9.79523 25.5666 9.4989 25.6864 9.23159L17.8658 4.69919C17.6063 4.94488 17.2854 5.12636 16.9285 5.21821L16.9285 26.7818C17.4424 26.914 17.8816 27.232 18.1704 27.66L25.6864 23.3041C25.5666 23.0368 25.5 22.7405 25.5 22.4286C25.5 21.4301 26.1829 20.5912 27.1071 20.3533V12.1825Z" fill="#C4C4C4"/>
</svg>
