<svg width="11" height="16" viewBox="0 0 11 16" fill="none" xmlns="http://www.w3.org/2000/svg">
<path fill-rule="evenodd" clip-rule="evenodd" d="M7.99998 0H5.95041H5.02477H2.97521C2.18613 0 1.42938 0.313458 0.871418 0.871418C0.313458 1.42938 0 2.18613 0 2.97521C0 3.76428 0.313458 4.52104 0.871418 5.07899C1.02717 5.23475 1.19842 5.37145 1.38154 5.4876C1.19842 5.60375 1.02717 5.74046 0.871418 5.89621C0.313458 6.45417 0 7.21093 0 8C0 8.78908 0.313458 9.54583 0.871418 10.1038C1.02717 10.2595 1.19842 10.3962 1.38154 10.5124C1.19842 10.6285 1.02717 10.7652 0.871418 10.921C0.313458 11.479 0 12.2357 0 13.0248C0 13.8139 0.313458 14.5706 0.871418 15.1286C1.42938 15.6865 2.18613 16 2.97521 16C3.76428 16 4.52104 15.6865 5.07899 15.1286C5.63695 14.5706 5.95041 13.8139 5.95041 13.0248V10.9752V10.1567C6.50266 10.6815 7.23618 10.9752 7.99998 10.9752C8.78905 10.9752 9.54581 10.6618 10.1038 10.1038C10.6617 9.54583 10.9752 8.78908 10.9752 8C10.9752 7.21093 10.6617 6.45417 10.1038 5.89621C9.94801 5.74046 9.77676 5.60376 9.59364 5.48761C9.77676 5.37146 9.94801 5.23475 10.1038 5.07899C10.6617 4.52104 10.9752 3.76428 10.9752 2.97521C10.9752 2.18613 10.6617 1.42938 10.1038 0.871418C9.54581 0.313458 8.78905 0 7.99998 0ZM5.95041 8.00928C5.95286 8.54952 6.16852 9.06709 6.5507 9.44928C6.93507 9.83365 7.45639 10.0496 7.99998 10.0496C8.54356 10.0496 9.06488 9.83365 9.44925 9.44928C9.83363 9.06491 10.0496 8.54359 10.0496 8C10.0496 7.45642 9.83363 6.9351 9.44925 6.55073C9.06488 6.16635 8.54356 5.95042 7.99998 5.95042C7.45639 5.95042 6.93507 6.16635 6.5507 6.55073C6.16852 6.93291 5.95286 7.45049 5.95041 7.99072V8.00928ZM5.02479 10.9752H2.97521C2.97419 10.9752 2.97318 10.9752 2.97216 10.9752C2.42968 10.976 1.90958 11.1919 1.52593 11.5755C1.14156 11.9599 0.92562 12.4812 0.92562 13.0248C0.92562 13.5684 1.14156 14.0897 1.52593 14.4741C1.9103 14.8584 2.43162 15.0744 2.97521 15.0744C3.51879 15.0744 4.04011 14.8584 4.42448 14.4741C4.80886 14.0897 5.02479 13.5684 5.02479 13.0248V10.9752ZM5.02479 7.98882V5.95042H2.97521C2.43162 5.95042 1.9103 6.16635 1.52593 6.55073C1.14156 6.9351 0.92562 7.45642 0.92562 8C0.92562 8.54359 1.14156 9.06491 1.52593 9.44928C1.9103 9.83365 2.43162 10.0496 2.97521 10.0496L5.02479 10.0496V8.01118C5.02478 8.00746 5.02477 8.00373 5.02477 8C5.02477 7.99627 5.02478 7.99255 5.02479 7.98882ZM7.99998 0.92562H5.95041V5.02479H7.99998C8.54356 5.02479 9.06488 4.80886 9.44925 4.42448C9.83363 4.04011 10.0496 3.51879 10.0496 2.97521C10.0496 2.43162 9.83363 1.9103 9.44925 1.52593C9.06488 1.14156 8.54356 0.92562 7.99998 0.92562ZM2.97521 0.92562H5.02477V5.02479H2.97521C2.43162 5.02479 1.9103 4.80886 1.52593 4.42448C1.14156 4.04011 0.92562 3.51879 0.92562 2.97521C0.92562 2.43162 1.14156 1.9103 1.52593 1.52593C1.9103 1.14156 2.43162 0.92562 2.97521 0.92562Z" fill="#1E1E1E"/>
</svg>
