<svg width="14" height="16" viewBox="0 0 14 16" fill="none" xmlns="http://www.w3.org/2000/svg">
<path fill-rule="evenodd" clip-rule="evenodd" d="M0 7.05724C0 3.15667 3.14796 0 7.03776 0C7.80216 0 8.53833 0.122559 9.22699 0.350168C9.32164 0.377887 9.41462 0.413345 9.50671 0.448464C9.53892 0.460749 9.57102 0.472992 9.60305 0.484848C9.61124 0.488087 9.61939 0.491297 9.62751 0.494495C9.66435 0.509015 9.70055 0.52328 9.73736 0.538721C9.87886 0.595156 10.0181 0.660365 10.1537 0.727273C10.2868 0.792935 10.416 0.867575 10.5432 0.942761C12.7647 2.25595 14.0819 4.96035 13.9143 7.60943C13.6361 12.0105 9.90663 15.3632 5.69468 16V13.9798C2.45496 13.3449 0 10.4914 0 7.05724ZM7.82282 2.87756C8.00046 2.66703 8.25449 2.58285 8.49572 2.60765C8.89779 2.64898 9.2763 2.97203 9.24938 3.43087C9.24938 3.60361 9.20093 3.82494 9.1148 3.99768C8.8564 4.60227 8.34499 4.98824 7.74207 5.1178C7.35447 4.64276 7.26834 3.99498 7.52674 3.39038C7.53153 3.38077 7.53631 3.37117 7.54108 3.36159C7.62201 3.199 7.70081 3.04068 7.82282 2.87756ZM4.59286 3.43087C4.59286 2.99902 4.96674 2.68567 5.35997 2.64814C5.59591 2.62562 5.84177 2.70752 6.01942 2.91804C6.14143 3.04039 6.22023 3.19884 6.30116 3.36158C6.30593 3.37117 6.31071 3.38077 6.3155 3.39038C6.5739 3.99498 6.48508 4.64276 6.14055 5.1178C5.53762 4.98824 4.98584 4.60227 4.72744 3.99768C4.64131 3.82494 4.59286 3.60361 4.59286 3.43087ZM2.82984 6.06248C2.26459 5.61713 2.56793 4.76138 3.24704 4.72643C3.25151 4.7262 3.25593 4.72596 3.26032 4.72573C3.30045 4.72358 3.33795 4.72156 3.38162 4.72643C3.59695 4.72643 3.77191 4.77501 3.98724 4.86138C4.59017 5.1205 5.0289 5.63602 5.1581 6.19743C4.64131 6.54291 3.94417 6.63198 3.34125 6.37287C3.16898 6.2865 3.0021 6.19203 2.82984 6.06248ZM8.76489 7.66843C9.08788 7.4525 9.48742 7.33695 9.88192 7.34454C10.1186 7.3491 10.3556 7.39582 10.5817 7.49299C10.5913 7.4978 10.6009 7.50259 10.6105 7.50737C10.7726 7.58852 10.9305 7.66754 11.0932 7.78989C11.6961 8.22174 11.3166 9.18262 10.5414 9.13943C10.326 9.13943 10.1511 9.09085 9.93575 9.00448C9.33282 8.74536 8.89409 8.22984 8.76489 7.66843ZM3.30087 7.53348C3.52697 7.43631 3.764 7.38958 4.0007 7.38503C4.39519 7.37744 4.78127 7.49299 5.10427 7.70892C5.01814 8.27033 4.59017 8.78585 3.98724 9.04496C3.81498 9.13133 3.59695 9.17992 3.38162 9.17992C2.60643 9.2231 2.2296 8.31891 2.78946 7.84387C2.91866 7.71431 3.08554 7.61985 3.30087 7.53348ZM4.80819 9.8277C5.06658 9.2231 5.57799 8.83713 6.18092 8.70758C6.52545 9.2258 6.61427 9.87358 6.35588 10.435C6.35108 10.4446 6.34631 10.4542 6.34154 10.4638C6.26061 10.6264 6.18181 10.7847 6.0598 10.9478C5.62914 11.5092 4.63054 11.1152 4.67361 10.381C4.67361 10.2083 4.72206 10.0004 4.80819 9.8277ZM7.60749 10.4755C7.34909 9.87088 7.43791 9.2231 7.78244 8.74806C8.38537 8.87762 8.93715 9.26359 9.19555 9.86818C9.28168 10.0409 9.33013 10.2622 9.33013 10.435C9.3732 11.0828 8.37729 11.466 7.90357 10.9478C7.78156 10.8255 7.70275 10.667 7.62182 10.5043C7.61705 10.4947 7.61228 10.4851 7.60749 10.4755Z" fill="#231F20"/>
</svg>
