<svg width="16" height="15" viewBox="0 0 16 15" fill="none" xmlns="http://www.w3.org/2000/svg">
<path fill-rule="evenodd" clip-rule="evenodd" d="M7.6897 0C3.44114 0 0 3.44114 0 7.6897C0 11.0924 2.20118 13.9664 5.25783 14.9853C5.64232 15.0526 5.7865 14.8219 5.7865 14.62C5.7865 14.4374 5.77689 13.8319 5.77689 13.1878C3.84485 13.5435 3.34502 12.7168 3.19123 12.2843C3.10472 12.0632 2.72984 11.3808 2.40303 11.1981C2.13389 11.0539 1.74941 10.6983 2.39342 10.6887C2.99898 10.6791 3.43153 11.2462 3.57571 11.4769C4.26779 12.6399 5.37318 12.3131 5.81534 12.1113C5.88262 11.6115 6.08448 11.275 6.30556 11.0828C4.5946 10.8905 2.80674 10.2273 2.80674 7.28599C2.80674 6.44974 3.10472 5.75767 3.59494 5.21939C3.51804 5.02714 3.2489 4.23895 3.67183 3.18161C3.67183 3.18161 4.31585 2.97976 5.7865 3.96981C6.40168 3.79679 7.0553 3.71028 7.70893 3.71028C8.36255 3.71028 9.01618 3.79679 9.63135 3.96981C11.102 2.97015 11.746 3.18161 11.746 3.18161C12.169 4.23895 11.8998 5.02714 11.8229 5.21939C12.3131 5.75767 12.6111 6.44013 12.6111 7.28599C12.6111 10.2369 10.8136 10.8905 9.10269 11.0828C9.38144 11.3231 9.62174 11.7845 9.62174 12.5054C9.62174 13.5339 9.61213 14.3605 9.61213 14.62C9.61213 14.8219 9.75631 15.0622 10.1408 14.9853C13.1782 13.9664 15.3794 11.0828 15.3794 7.6897C15.3794 3.44114 11.9383 0 7.6897 0Z" fill="#231F20"/>
</svg>
