<svg width="17" height="16" viewBox="0 0 17 16" fill="none" xmlns="http://www.w3.org/2000/svg">
<path d="M16.9497 8.80573L16.0445 6.0179C16.0449 6.01915 16.0451 6.02046 16.0455 6.02171C16.045 6.02026 16.0448 6.0188 16.0444 6.01735C16.0443 6.01725 16.0443 6.0172 16.0443 6.0171C16.0443 6.01705 16.0443 6.017 16.0443 6.017L14.2474 0.484674C14.1491 0.193238 13.8786 -0.0023572 13.5685 5.01249e-05C13.2575 0.00165501 12.9945 0.193488 12.8983 0.488936L11.1926 5.74015H5.81057L4.10167 0.488586C4.00558 0.193388 3.74248 0.00160488 3.43154 0C3.43028 0 3.42908 0 3.42778 0C3.12159 0 2.85057 0.194391 2.75122 0.489087L0.959169 6.01644L0.958918 6.01715C0.958918 6.0172 0.958918 6.01725 0.958918 6.0173C0.958467 6.0187 0.958266 6.02011 0.957815 6.02151C0.958216 6.02026 0.958367 6.01895 0.958768 6.0177L0.0502553 8.80573C-0.0864102 9.22661 0.0618908 9.684 0.419378 9.94404L8.26403 15.6438C8.26518 15.6446 8.26649 15.6451 8.26764 15.646C8.271 15.6484 8.27426 15.6508 8.27767 15.6531C8.27446 15.6509 8.27145 15.6486 8.26829 15.6464C8.26829 15.6464 8.26829 15.6463 8.26824 15.6463C8.26874 15.6467 8.26935 15.647 8.2699 15.6473C8.27035 15.6476 8.2708 15.6478 8.27125 15.6481C8.2713 15.6482 8.27135 15.6482 8.27145 15.6483C8.28359 15.6567 8.29618 15.6644 8.30922 15.6715C8.31102 15.6725 8.31263 15.6738 8.31443 15.6747C8.31448 15.6747 8.31448 15.6748 8.31453 15.6748C8.31564 15.6753 8.31664 15.676 8.31774 15.6766C8.3186 15.677 8.3195 15.6772 8.3203 15.6776C8.3209 15.6779 8.32156 15.6781 8.32216 15.6784C8.32361 15.6791 8.32522 15.6795 8.32667 15.6803C8.33349 15.6835 8.34066 15.6862 8.34769 15.6891C8.35426 15.6918 8.36062 15.6949 8.36734 15.6973C8.36765 15.6974 8.3679 15.6975 8.3682 15.6976C8.3693 15.698 8.3703 15.6986 8.37146 15.699C8.37286 15.6995 8.37422 15.7 8.37562 15.7005C8.37617 15.7006 8.37672 15.7007 8.37727 15.7009C8.37903 15.7014 8.38094 15.7017 8.38269 15.7022C8.38334 15.7024 8.3841 15.7025 8.3848 15.7027C8.39423 15.7056 8.40401 15.7076 8.41374 15.7098C8.41755 15.7106 8.42121 15.7118 8.42507 15.7125C8.42562 15.7126 8.42612 15.7128 8.42672 15.7129C8.42798 15.7132 8.42913 15.7136 8.43044 15.7138C8.43249 15.7142 8.4345 15.7148 8.43661 15.7151C8.43826 15.7154 8.43997 15.7153 8.44162 15.7155C8.44192 15.7156 8.44217 15.7155 8.44247 15.7156C8.44257 15.7156 8.44262 15.7156 8.44272 15.7156C8.46123 15.7182 8.47999 15.7201 8.4991 15.7201C8.4992 15.7201 8.4993 15.7201 8.49945 15.7201C8.4995 15.7201 8.49955 15.7201 8.49955 15.7201H8.4996C8.49965 15.7201 8.4997 15.7201 8.49975 15.7201C8.51891 15.7201 8.53766 15.7182 8.55622 15.7156C8.55627 15.7156 8.55637 15.7156 8.55642 15.7156C8.55672 15.7155 8.55702 15.7156 8.55732 15.7155C8.55898 15.7153 8.56073 15.7154 8.56239 15.7151C8.56449 15.7148 8.5665 15.7142 8.56861 15.7138C8.56986 15.7136 8.57101 15.7132 8.57227 15.7129C8.57282 15.7128 8.57332 15.7126 8.57387 15.7125C8.57779 15.7118 8.58155 15.7106 8.58546 15.7097C8.59504 15.7076 8.60467 15.7056 8.61405 15.7027C8.6147 15.7025 8.61535 15.7025 8.616 15.7023C8.61786 15.7017 8.61976 15.7015 8.62162 15.7009C8.62217 15.7007 8.62277 15.7007 8.62332 15.7005C8.62478 15.7001 8.62618 15.6995 8.62759 15.699C8.62869 15.6986 8.62969 15.698 8.6308 15.6976C8.6311 15.6975 8.63135 15.6974 8.63165 15.6973C8.63877 15.6948 8.64549 15.6915 8.65246 15.6886C8.65893 15.6859 8.66555 15.6835 8.67187 15.6805C8.67343 15.6797 8.67508 15.6793 8.67658 15.6785C8.67719 15.6782 8.67789 15.678 8.67849 15.6777C8.67934 15.6773 8.68025 15.6771 8.6811 15.6766C8.68225 15.676 8.68336 15.6753 8.68446 15.6748C8.68446 15.6748 8.68451 15.6748 8.68451 15.6747C8.68637 15.6738 8.68802 15.6724 8.68988 15.6714C8.70281 15.6644 8.71535 15.6567 8.72744 15.6483C8.72839 15.6477 8.7295 15.6472 8.7305 15.6465C8.73075 15.6463 8.73105 15.6462 8.7313 15.646C8.73245 15.6451 8.73381 15.6446 8.73496 15.6437L16.5808 9.94389C16.9381 9.684 17.0864 9.22661 16.9497 8.80573ZM13.5735 1.00295L15.1122 5.74015H12.0348L13.5735 1.00295ZM14.8427 6.54119L14.2148 7.34569L9.58404 13.2791L11.7746 6.54119H14.8427ZM8.11859 15.4435C8.11899 15.4447 8.11964 15.4458 8.12004 15.4471C8.11964 15.4458 8.11899 15.4447 8.11859 15.4435ZM7.41605 13.2795L2.16027 6.54119H5.2286L7.41605 13.2795ZM3.42667 1.0029L4.96821 5.74015H1.89085L3.42667 1.0029ZM0.89041 9.29612C0.814379 9.2408 0.782883 9.14315 0.812021 9.05348L1.48738 6.98093L6.43592 13.3253L0.89041 9.29612ZM8.25024 15.6332C8.24868 15.6319 8.24718 15.6306 8.24568 15.6293C8.24537 15.629 8.24507 15.6287 8.24472 15.6284C8.24171 15.6259 8.23875 15.6234 8.23584 15.6207C8.23013 15.6158 8.22451 15.6107 8.21914 15.6054C8.2196 15.6058 8.2201 15.6062 8.22055 15.6066C8.22115 15.6071 8.2218 15.6076 8.2224 15.6081C8.23389 15.6191 8.24598 15.6294 8.25861 15.639C8.25876 15.6391 8.25886 15.6392 8.25902 15.6393C8.25962 15.6398 8.26012 15.6403 8.26072 15.6408C8.25726 15.6383 8.25365 15.6359 8.25024 15.6332ZM8.49975 14.0234L7.21258 10.0584L6.07081 6.54119H10.9322L8.49975 14.0234ZM8.7632 15.6207C8.76019 15.6234 8.75728 15.626 8.75422 15.6285C8.75387 15.6288 8.75352 15.6291 8.75317 15.6294C8.75161 15.6307 8.75016 15.632 8.74865 15.6333C8.74534 15.6359 8.74173 15.6384 8.73827 15.6409C8.73887 15.6405 8.73938 15.6399 8.74003 15.6395C8.74013 15.6394 8.74023 15.6393 8.74033 15.6392C8.75297 15.6296 8.765 15.6194 8.77639 15.6084C8.77684 15.608 8.77739 15.6076 8.77784 15.6072C8.77844 15.6067 8.7791 15.6062 8.77965 15.6057C8.77433 15.6108 8.76877 15.6158 8.7632 15.6207ZM16.1098 9.29597L10.5651 13.3241L15.5153 6.98143L16.1879 9.05308C16.2171 9.14315 16.1857 9.2408 16.1098 9.29597Z" fill="#231F20"/>
</svg>
