<svg width="15" height="15" viewBox="0 0 15 15" fill="none" xmlns="http://www.w3.org/2000/svg">
<path d="M14.9557 8.69447L14.1569 6.23462C14.1573 6.23573 14.1574 6.23688 14.1578 6.23799C14.1574 6.2367 14.1572 6.23542 14.1568 6.23414C14.1568 6.23405 14.1568 6.234 14.1568 6.23392C14.1568 6.23387 14.1568 6.23383 14.1568 6.23383L12.5712 1.35237C12.4845 1.09522 12.2458 0.922633 11.9722 0.924757C11.6978 0.926173 11.4657 1.09544 11.3808 1.35613L9.87581 5.98955H5.12697L3.61912 1.35582C3.53434 1.09535 3.30219 0.926129 3.02783 0.924713C3.02672 0.924713 3.02566 0.924713 3.02451 0.924713C2.75435 0.924713 2.51521 1.09623 2.42755 1.35626L0.846326 6.23334L0.846104 6.23396C0.846104 6.234 0.846104 6.23405 0.846104 6.23409C0.845706 6.23533 0.845529 6.23657 0.845131 6.23781C0.845485 6.2367 0.845618 6.23555 0.845972 6.23445L0.0443429 8.69447C-0.0762443 9.06584 0.0546095 9.46942 0.370039 9.69886L7.29179 14.728C7.29281 14.7288 7.29396 14.7292 7.29498 14.73C7.29794 14.7321 7.30082 14.7343 7.30383 14.7363C7.301 14.7344 7.29834 14.7323 7.29555 14.7303C7.29555 14.7303 7.29555 14.7303 7.29551 14.7303C7.29595 14.7306 7.29648 14.7309 7.29697 14.7312C7.29737 14.7314 7.29777 14.7316 7.29816 14.7319C7.29821 14.7319 7.29825 14.732 7.29834 14.732C7.30905 14.7395 7.32016 14.7463 7.33166 14.7525C7.33326 14.7534 7.33467 14.7545 7.33627 14.7553C7.33631 14.7553 7.33631 14.7554 7.33635 14.7554C7.33733 14.7559 7.33821 14.7565 7.33919 14.757C7.33994 14.7573 7.34074 14.7576 7.34144 14.7579C7.34197 14.7582 7.34255 14.7584 7.34308 14.7586C7.34436 14.7592 7.34578 14.7596 7.34706 14.7603C7.35308 14.7631 7.35941 14.7655 7.3656 14.768C7.3714 14.7704 7.37702 14.7732 7.38295 14.7753C7.38322 14.7753 7.38344 14.7755 7.3837 14.7756C7.38468 14.7759 7.38556 14.7764 7.38658 14.7768C7.38782 14.7772 7.38901 14.7777 7.39025 14.7781C7.39074 14.7782 7.39123 14.7783 7.39171 14.7784C7.39326 14.7789 7.39494 14.7791 7.39649 14.7796C7.39707 14.7798 7.39773 14.7799 7.39835 14.78C7.40667 14.7826 7.4153 14.7844 7.42388 14.7863C7.42725 14.787 7.43048 14.7881 7.43389 14.7887C7.43437 14.7888 7.43481 14.789 7.43535 14.7891C7.43645 14.7893 7.43747 14.7897 7.43862 14.7899C7.44043 14.7902 7.44221 14.7907 7.44406 14.791C7.44552 14.7912 7.44703 14.7911 7.44849 14.7914C7.44875 14.7914 7.44898 14.7914 7.44924 14.7914C7.44933 14.7914 7.44937 14.7914 7.44946 14.7914C7.46579 14.7938 7.48234 14.7954 7.4992 14.7954C7.49929 14.7954 7.49938 14.7954 7.49951 14.7954C7.49956 14.7954 7.4996 14.7954 7.4996 14.7954H7.49964C7.49969 14.7954 7.49973 14.7954 7.49978 14.7954C7.51668 14.7954 7.53323 14.7938 7.5496 14.7914C7.54965 14.7914 7.54974 14.7914 7.54978 14.7914C7.55005 14.7914 7.55031 14.7914 7.55058 14.7914C7.55204 14.7911 7.55359 14.7912 7.55505 14.791C7.55691 14.7907 7.55868 14.7902 7.56054 14.7899C7.56164 14.7897 7.56266 14.7893 7.56377 14.7891C7.56425 14.789 7.5647 14.7888 7.56518 14.7887C7.56863 14.788 7.57195 14.787 7.5754 14.7862C7.58386 14.7844 7.59235 14.7826 7.60063 14.7801C7.6012 14.7799 7.60178 14.7799 7.60235 14.7797C7.60399 14.7792 7.60567 14.779 7.60731 14.7785C7.6078 14.7783 7.60833 14.7783 7.60881 14.7781C7.6101 14.7777 7.61134 14.7772 7.61258 14.7768C7.61355 14.7764 7.61443 14.7759 7.61541 14.7756C7.61567 14.7755 7.61589 14.7753 7.61616 14.7753C7.62244 14.773 7.62837 14.7701 7.63453 14.7676C7.64023 14.7652 7.64607 14.7631 7.65165 14.7604C7.65302 14.7598 7.65448 14.7594 7.65581 14.7587C7.65634 14.7584 7.65696 14.7583 7.65749 14.758C7.65824 14.7576 7.65904 14.7574 7.65979 14.757C7.66081 14.7565 7.66178 14.7559 7.66276 14.7554C7.66276 14.7554 7.6628 14.7554 7.6628 14.7553C7.66444 14.7545 7.6659 14.7533 7.66754 14.7524C7.67895 14.7462 7.69002 14.7395 7.70068 14.7321C7.70152 14.7315 7.7025 14.731 7.70338 14.7304C7.7036 14.7303 7.70387 14.7302 7.70409 14.73C7.70511 14.7292 7.7063 14.7287 7.70732 14.728L14.6301 9.69873C14.9454 9.46942 15.0762 9.06584 14.9557 8.69447ZM11.9766 1.80967L13.3343 5.98955H10.6189L11.9766 1.80967ZM13.0965 6.69635L12.5425 7.4062L8.45651 12.6415L10.3893 6.69635H13.0965ZM7.16346 14.5513C7.16381 14.5524 7.16439 14.5534 7.16474 14.5545C7.16439 14.5534 7.16381 14.5524 7.16346 14.5513ZM6.54358 12.6419L1.90612 6.69635H4.61347L6.54358 12.6419ZM3.02353 1.80962L4.38371 5.98955H1.6684L3.02353 1.80962ZM0.785656 9.12717C0.718569 9.07836 0.690779 8.9922 0.716489 8.91308L1.31239 7.08435L5.67875 12.6823L0.785656 9.12717ZM7.27962 14.7187C7.27825 14.7176 7.27692 14.7164 7.2756 14.7152C7.27533 14.715 7.27506 14.7147 7.27475 14.7145C7.2721 14.7123 7.26949 14.71 7.26692 14.7077C7.26188 14.7033 7.25692 14.6989 7.25219 14.6942C7.25258 14.6945 7.25303 14.6948 7.25343 14.6952C7.25396 14.6957 7.25453 14.6961 7.25506 14.6966C7.2652 14.7063 7.27586 14.7154 7.28701 14.7238C7.28715 14.7239 7.28723 14.724 7.28737 14.7241C7.2879 14.7245 7.28834 14.725 7.28887 14.7254C7.28582 14.7232 7.28263 14.7211 7.27962 14.7187ZM7.49978 13.2983L6.36404 9.7998L5.3566 6.69635H9.6461L7.49978 13.2983ZM7.73223 14.7077C7.72958 14.71 7.72701 14.7123 7.72431 14.7145C7.724 14.7148 7.72369 14.7151 7.72338 14.7154C7.72201 14.7165 7.72073 14.7177 7.7194 14.7188C7.71648 14.7211 7.71329 14.7233 7.71024 14.7255C7.71077 14.7251 7.71121 14.7246 7.71179 14.7242C7.71188 14.7241 7.71197 14.7241 7.71206 14.724C7.72321 14.7156 7.73383 14.7065 7.74387 14.6968C7.74427 14.6964 7.74476 14.6961 7.74516 14.6958C7.74569 14.6953 7.74626 14.6949 7.74675 14.6944C7.74206 14.699 7.73715 14.7034 7.73223 14.7077ZM14.2145 9.12704L9.32213 12.6812L13.69 7.0848L14.2835 8.91272C14.3092 8.9922 14.2815 9.07836 14.2145 9.12704Z" fill="#231F20"/>
</svg>
