<svg width="19" height="15" viewBox="0 0 19 15" fill="none" xmlns="http://www.w3.org/2000/svg">
<path fill-rule="evenodd" clip-rule="evenodd" d="M11.8842 4.13053H11.8384C11.0368 3.48178 10.0175 3.16398 8.98918 3.24218C7.9609 3.32039 7.00139 3.78868 6.30709 4.5512C6.29319 4.54842 6.27717 4.55335 6.26009 4.56354C6.71361 4.65219 7.15496 4.80051 7.57232 5.0058C8.30013 5.36378 8.93526 5.88528 9.42804 6.52951L7.08023 8.87732C6.94543 8.57897 6.74026 8.31776 6.48232 8.11613C6.22438 7.9145 5.92137 7.77845 5.5993 7.71967C5.27722 7.66089 4.94569 7.68112 4.63316 7.77864C4.32062 7.87615 4.03641 8.04803 3.8049 8.27954C3.5734 8.51104 3.40152 8.79525 3.304 9.10779C3.20649 9.42033 3.18625 9.75186 3.24504 10.0739C3.30382 10.396 3.43986 10.699 3.6415 10.957C3.84313 11.2149 4.10433 11.4201 4.40269 11.5549L4.40091 11.5566C4.66214 11.6753 4.94573 11.7367 5.23267 11.7368H9.28024V11.7653L9.28592 11.7595H13.3335C13.5993 11.7595 13.8624 11.7072 14.108 11.6055C14.3535 11.5038 14.5766 11.3547 14.7645 11.1668C14.9524 10.9788 15.1015 10.7557 15.2032 10.5102C15.3049 10.2647 15.3573 10.0015 15.3573 9.73573C15.3573 9.46996 15.3049 9.2068 15.2032 8.96126C15.1015 8.71572 14.9524 8.49262 14.7645 8.3047C14.5766 8.11677 14.3535 7.9677 14.108 7.86599C13.8624 7.76429 13.5993 7.71194 13.3335 7.71194V7.30832C13.345 6.69644 13.2175 6.08992 12.9605 5.53452C12.7097 4.99262 12.3421 4.51318 11.8842 4.13053ZM2.06056 13.897L2.05487 13.9197C2.9698 14.6106 4.08621 14.9821 5.23267 14.9771H9.26318L9.28592 14.9998H13.3335C14.4638 15.0086 15.5668 14.6534 16.4796 13.9867C17.3923 13.32 18.0662 12.3772 18.4015 11.2978C18.7369 10.2183 18.7159 9.05966 18.3417 7.9931C17.9675 6.92654 17.2599 6.00875 16.3237 5.3755C15.9513 4.00412 15.1867 2.77126 14.1237 1.82819L14.0908 1.86107L14.0953 1.8225C13.1671 1.0033 12.0455 0.434227 10.8362 0.169043C9.62703 -0.0961413 8.37017 -0.0486824 7.1844 0.306936C5.99862 0.662555 4.92308 1.31459 4.05937 2.20146C3.19566 3.08832 2.57229 4.18073 2.24815 5.37549C2.28569 5.36011 2.32407 5.3474 2.36301 5.33739C2.3012 5.37822 2.24016 5.42041 2.17993 5.46395C1.29116 6.1065 0.625273 7.0106 0.27527 8.04997C-0.0747342 9.08934 -0.0913731 10.2121 0.227677 11.2614C0.546727 12.3106 1.18553 13.2341 2.05487 13.9027L2.06056 13.897Z" fill="#231F20"/>
</svg>
