<svg width="12" height="12" viewBox="0 0 12 12" fill="none" xmlns="http://www.w3.org/2000/svg">
<path fill-rule="evenodd" clip-rule="evenodd" d="M4.32195 0H0V12H12V7.67805C12 7.29908 11.6928 6.99187 11.3138 6.99187C10.9349 6.99187 10.6276 7.29908 10.6276 7.67805V10.6276H1.37236V1.37236H4.32195C4.70092 1.37236 5.00813 1.06514 5.00813 0.686179C5.00813 0.307213 4.70092 0 4.32195 0ZM10.4755 4.61387V2.49484L4.339 8.63138L3.3686 7.66098L9.50514 1.52444L7.38611 1.52444C7.00715 1.52444 6.69993 1.21722 6.69993 0.838258C6.69993 0.459291 7.00715 0.152079 7.38611 0.152079L11.1617 0.152079C11.5407 0.152079 11.8479 0.459292 11.8479 0.838258V4.61387C11.8479 4.99283 11.5407 5.30005 11.1617 5.30005C10.7828 5.30005 10.4755 4.99283 10.4755 4.61387Z" fill="black"/>
</svg>
