<svg width="14" height="14" viewBox="0 0 14 14" fill="none" xmlns="http://www.w3.org/2000/svg">
<path d="M3 3H5V5H3V3Z" fill="#231F20"/>
<path d="M3 6H5V8H3V6Z" fill="#231F20"/>
<path d="M3 9H5V11H3V9Z" fill="#231F20"/>
<path d="M0 3H2V5H0V3Z" fill="#231F20"/>
<path fill-rule="evenodd" clip-rule="evenodd" d="M4.5 0.5H3.5V1.5H4.5V0.5ZM3 0V2H5V0H3Z" fill="#231F20"/>
<path fill-rule="evenodd" clip-rule="evenodd" d="M1.5 0.5H0.5V1.5H1.5V0.5ZM0 0V2H2V0H0Z" fill="#231F20"/>
<path d="M0 6H2V8H0V6Z" fill="#231F20"/>
<path d="M6 3H8V5H6V3Z" fill="#231F20"/>
<path d="M9 3H11V5H9V3Z" fill="#231F20"/>
<path d="M12 3H14V5H12V3Z" fill="#231F20"/>
<path fill-rule="evenodd" clip-rule="evenodd" d="M7.5 0.5H6.5V1.5H7.5V0.5ZM6 0V2H8V0H6Z" fill="#231F20"/>
<path fill-rule="evenodd" clip-rule="evenodd" d="M10.5 0.5H9.5V1.5H10.5V0.5ZM9 0V2H11V0H9Z" fill="#231F20"/>
<path fill-rule="evenodd" clip-rule="evenodd" d="M13.5 0.5H12.5V1.5H13.5V0.5ZM12 0V2H14V0H12Z" fill="#231F20"/>
<path d="M6 6H8V8H6V6Z" fill="#231F20"/>
<path d="M9 6H11V8H9V6Z" fill="#231F20"/>
<path d="M9 9H11V11H9V9Z" fill="#231F20"/>
<path d="M9 12H11V14H9V12Z" fill="#231F20"/>
<path d="M6 9H8V11H6V9Z" fill="#231F20"/>
</svg>
