<svg width="16" height="16" viewBox="0 0 16 16" fill="none" xmlns="http://www.w3.org/2000/svg">
<path fill-rule="evenodd" clip-rule="evenodd" d="M5.99436 0.15584C6.54268 0.0588153 7.16584 0.00316295 7.81839 0.00013087C8.47093 -0.00290121 9.15129 0.046687 9.80701 0.15584C10.8429 0.328487 11.7156 1.10556 11.7156 2.14002V5.77472C11.7156 6.84056 10.8683 7.71441 9.80701 7.71441H5.99436C4.69988 7.71441 3.60979 8.82574 3.60979 10.0856V11.8296H2.29738C1.18803 11.8296 0.540048 11.0244 0.268715 9.89434C-0.097302 8.37619 -0.0817567 7.4689 0.268715 6.01495C0.572551 4.7465 1.54393 4.07971 2.65329 4.07971H4.08581H7.90291V3.59479H4.08581V2.14002C4.08581 1.0385 4.37909 0.441207 5.99436 0.15584ZM6.47039 1.89978C6.47039 1.49742 6.14841 1.17017 5.75413 1.17017C5.35843 1.17017 5.03786 1.49742 5.03786 1.89978C5.03786 2.30072 5.35843 2.62494 5.75413 2.62494C6.14841 2.62494 6.47039 2.30072 6.47039 1.89978ZM12.1916 5.77471V4.07971H13.6241C14.7349 4.07971 15.2585 4.91058 15.5327 6.01495C15.9142 7.5488 15.9312 8.69864 15.5327 9.89433C15.1469 11.0558 14.7335 11.8296 13.6241 11.8296H11.7156H7.90291V12.3145H11.7156V13.7693C11.7156 14.8708 10.768 15.4307 9.80701 15.709C8.36132 16.1284 7.20264 16.0642 5.99436 15.709C4.98534 15.4122 4.08581 14.8037 4.08581 13.7693V10.1346C4.08581 9.0887 4.95001 8.19488 5.99436 8.19488H9.80701C11.0775 8.19488 12.1916 7.08883 12.1916 5.77471ZM10.7635 14.0095C10.7635 13.6086 10.4429 13.2843 10.0473 13.2843C9.65297 13.2843 9.33099 13.6086 9.33099 14.0095C9.33099 14.4119 9.65297 14.7391 10.0473 14.7391C10.4429 14.7391 10.7635 14.4119 10.7635 14.0095Z" fill="#231F20"/>
</svg>
