<svg width="18" height="17" viewBox="0 0 18 17" fill="none" xmlns="http://www.w3.org/2000/svg">
<path fill-rule="evenodd" clip-rule="evenodd" d="M13.0642 1.8824C13.3271 2.03415 13.5363 2.33924 13.645 2.84767C13.7538 3.35604 13.7508 4.02438 13.6237 4.81736C13.5749 5.12203 13.5083 5.44198 13.4242 5.77445C12.6863 5.60744 11.8821 5.48113 11.0319 5.40252C10.5387 4.70553 10.0272 4.07219 9.51361 3.51666C9.75951 3.27761 10.0033 3.05994 10.2427 2.86534C10.8659 2.35882 11.4433 2.02207 11.9379 1.86205C12.4326 1.70202 12.8014 1.73064 13.0642 1.8824ZM8.42533 3.51666C8.17943 3.27761 7.93566 3.05994 7.69622 2.86534C7.073 2.35883 6.49569 2.02207 6.00106 1.86205C5.50638 1.70202 5.13755 1.73064 4.87471 1.8824C4.61187 2.03415 4.40267 2.33925 4.29392 2.84767C4.18519 3.35604 4.18817 4.02438 4.31522 4.81736C4.36403 5.12203 4.43064 5.44198 4.51472 5.77445C5.25261 5.60744 6.05686 5.48113 6.90705 5.40252C7.40023 4.70553 7.91174 4.07219 8.42533 3.51666ZM8.96947 2.95789C8.70735 2.70303 8.44618 2.4698 8.18814 2.26008C7.52168 1.71841 6.85946 1.32 6.24113 1.11997C5.62286 0.91995 5.00529 0.906393 4.48474 1.20694C3.96418 1.50748 3.66714 2.04908 3.53122 2.68453C3.39529 3.32004 3.40922 4.09274 3.54508 4.94075C3.59769 5.26908 3.66909 5.61187 3.75874 5.96631C3.40697 6.06588 3.0744 6.17544 2.76375 6.29406C1.96142 6.6004 1.28528 6.97469 0.802881 7.41016C0.320524 7.84559 0 8.37364 0 8.97473C0 9.57581 0.320524 10.1039 0.802881 10.5393C1.28528 10.9748 1.96142 11.3491 2.76375 11.6554C3.0744 11.774 3.40697 11.8836 3.75874 11.9831C3.66909 12.3376 3.59769 12.6804 3.54508 13.0087C3.40922 13.8567 3.39529 14.6294 3.53122 15.2649C3.66714 15.9004 3.96418 16.442 4.48474 16.7425C5.00529 17.0431 5.62286 17.0295 6.24113 16.8295C6.85946 16.6294 7.52167 16.231 8.18814 15.6894C8.44618 15.4796 8.70735 15.2464 8.96947 14.9916C9.23159 15.2464 9.49276 15.4796 9.75081 15.6894C10.4173 16.231 11.0795 16.6294 11.6978 16.8295C12.3161 17.0295 12.9337 17.0431 13.4542 16.7425C13.9748 16.442 14.2718 15.9004 14.4077 15.2649C14.5437 14.6294 14.5297 13.8567 14.3939 13.0087C14.3413 12.6804 14.2699 12.3376 14.1802 11.9831C14.532 11.8836 14.8645 11.774 15.1752 11.6554C15.9775 11.3491 16.6537 10.9748 17.1361 10.5393C17.6184 10.1039 17.9389 9.57581 17.9389 8.97473C17.9389 8.37364 17.6184 7.84559 17.1361 7.41016C16.6537 6.97469 15.9775 6.6004 15.1752 6.29406C14.8645 6.17544 14.532 6.06588 14.1802 5.96631C14.2699 5.61188 14.3413 5.26908 14.3939 4.94074C14.5297 4.09274 14.5437 3.32004 14.4077 2.68453C14.2718 2.04908 13.9748 1.50748 13.4542 1.20694C12.9337 0.906392 12.3161 0.919949 11.6978 1.11997C11.0795 1.32 10.4173 1.71841 9.75081 2.26008C9.49276 2.4698 9.23159 2.70303 8.96947 2.95789ZM13.2109 6.52592C12.7072 6.41338 12.1682 6.32003 11.6013 6.2489C11.7863 6.53806 11.9675 6.83598 12.1441 7.14183C12.3207 7.44769 12.4881 7.75363 12.646 8.0584C12.8679 7.53186 13.0565 7.01846 13.2109 6.52592ZM13.0943 8.97472C13.4513 8.19913 13.7441 7.43948 13.9684 6.71694C14.2983 6.81036 14.6087 6.91264 14.897 7.0227C15.6472 7.30917 16.2275 7.64076 16.6134 7.98911C16.9994 8.3375 17.159 8.67122 17.159 8.97473C17.159 9.27823 16.9994 9.61195 16.6134 9.96034C16.2275 10.3087 15.6472 10.6403 14.897 10.9267C14.6087 11.0368 14.2983 11.1391 13.9684 11.2325C13.7441 10.51 13.4513 9.75032 13.0943 8.97472ZM12.2322 8.97472C12.003 8.49877 11.7482 8.01602 11.4687 7.53181C11.1891 7.0476 10.8984 6.58562 10.6008 6.14911C10.074 6.10966 9.52859 6.0889 8.96947 6.0889C8.41035 6.0889 7.86491 6.10966 7.3381 6.14911C7.04053 6.58562 6.74983 7.0476 6.47027 7.53181C6.19071 8.01602 5.93598 8.49877 5.70673 8.97472C5.93598 9.45068 6.19071 9.93343 6.47027 10.4176C6.74983 10.9019 7.04053 11.3638 7.3381 11.8003C7.86491 11.8398 8.41035 11.8606 8.96947 11.8606C9.52859 11.8606 10.074 11.8398 10.6008 11.8003C10.8984 11.3638 11.1891 10.9019 11.4687 10.4176C11.7482 9.93343 12.003 9.45068 12.2322 8.97472ZM11.6013 11.7006C11.7863 11.4114 11.9675 11.1135 12.1441 10.8076C12.3207 10.5018 12.4881 10.1958 12.646 9.89105C12.8679 10.4176 13.0565 10.931 13.2109 11.4235C12.7072 11.5361 12.1682 11.6294 11.6013 11.7006ZM10.0142 12.6169C9.67128 12.6325 9.32264 12.6405 8.96947 12.6405C8.6163 12.6405 8.26766 12.6325 7.92475 12.6169C8.26982 13.0723 8.62013 13.4923 8.96947 13.8723C9.31881 13.4923 9.66913 13.0723 10.0142 12.6169ZM9.51361 14.4328C10.0272 13.8773 10.5387 13.2439 11.0319 12.5469C11.8821 12.4683 12.6863 12.342 13.4242 12.175C13.5083 12.5075 13.5749 12.8274 13.6237 13.1321C13.7508 13.9251 13.7538 14.5934 13.645 15.1018C13.5363 15.6102 13.3271 15.9153 13.0642 16.0671C12.8014 16.2188 12.4326 16.2474 11.9379 16.0874C11.4433 15.9274 10.8659 15.5906 10.2427 15.0841C10.0033 14.8895 9.75951 14.6718 9.51361 14.4328ZM8.42533 14.4328C7.91174 13.8773 7.40023 13.2439 6.90706 12.5469C6.05686 12.4683 5.25261 12.342 4.51472 12.175C4.43064 12.5075 4.36403 12.8274 4.31521 13.1321C4.18817 13.9251 4.18519 14.5934 4.29392 15.1018C4.40267 15.6102 4.61187 15.9153 4.87471 16.0671C5.13755 16.2188 5.50638 16.2474 6.00106 16.0874C6.49569 15.9274 7.073 15.5906 7.69621 15.0841C7.93566 14.8895 8.17944 14.6718 8.42533 14.4328ZM4.72801 11.4235C5.23177 11.5361 5.7707 11.6294 6.33764 11.7006C6.15265 11.4114 5.9714 11.1135 5.79481 10.8076C5.61822 10.5018 5.45085 10.1958 5.29292 9.89104C5.07105 10.4176 4.88243 10.931 4.72801 11.4235ZM5.29292 8.0584C5.45085 7.75362 5.61822 7.44769 5.79481 7.14183C5.97139 6.83598 6.15265 6.53806 6.33764 6.2489C5.7707 6.32003 5.23177 6.41338 4.72801 6.52592C4.88243 7.01846 5.07105 7.53186 5.29292 8.0584ZM4.84464 8.97472C4.48762 9.75032 4.19488 10.51 3.97058 11.2325C3.64061 11.1391 3.33021 11.0368 3.04196 10.9267C2.2917 10.6403 1.7114 10.3087 1.32551 9.96034C0.939577 9.61195 0.779954 9.27823 0.779954 8.97473C0.779954 8.67122 0.939577 8.3375 1.32551 7.98911C1.7114 7.64076 2.2917 7.30917 3.04196 7.0227C3.33021 6.91264 3.64061 6.81036 3.97058 6.71694C4.19489 7.43948 4.48762 8.19912 4.84464 8.97472ZM7.92475 5.33258C8.26766 5.31696 8.6163 5.30894 8.96947 5.30894C9.32264 5.30894 9.67128 5.31696 10.0142 5.33258C9.66912 4.87716 9.31881 4.45711 8.96947 4.07711C8.62013 4.45711 8.26982 4.87716 7.92475 5.33258ZM10.5684 8.97472C10.5684 9.85778 9.85252 10.5736 8.96947 10.5736C8.08642 10.5736 7.37057 9.85778 7.37057 8.97472C7.37057 8.09167 8.08642 7.37582 8.96947 7.37582C9.85252 7.37582 10.5684 8.09167 10.5684 8.97472Z" fill="#231F20"/>
</svg>
