<svg width="20" height="17" viewBox="0 0 20 17" fill="none" xmlns="http://www.w3.org/2000/svg">
<path fill-rule="evenodd" clip-rule="evenodd" d="M2.89684 6.65311L3.7513 5.79864L4.58023 6.62757L2.29012 8.91769L0 6.62757L0.828929 5.79864L1.71883 6.68855C1.95712 2.95469 5.06103 0 8.85505 0C12.8044 0 16.006 3.20158 16.006 7.15092C16.006 9.65089 14.7231 11.8512 12.7798 13.1295H17.756L16.881 12.2545L17.7099 11.4256L20 13.7157L17.7099 16.0058L16.881 15.1769L17.7561 14.3018H8.9933C8.90547 14.3034 8.81769 14.3034 8.73002 14.3018H0.414549V13.1295H4.92894C4.02383 12.5362 3.24019 11.7276 2.66213 10.7264L3.67735 10.1402C4.76501 12.0241 6.72312 13.0921 8.75035 13.1295H8.87343C9.39703 13.128 9.9048 13.0591 10.3885 12.9311C10.8869 12.7985 11.3763 12.5988 11.8443 12.3286L11.8448 12.3294C13.6316 11.2956 14.8337 9.36367 14.8337 7.15092C14.8337 3.84901 12.157 1.17228 8.85505 1.17228C5.72077 1.17228 3.14981 3.58411 2.89684 6.65311Z" fill="#231F20"/>
</svg>
