<svg width="13" height="13" viewBox="0 0 13 13" fill="none" xmlns="http://www.w3.org/2000/svg">
<path fill-rule="evenodd" clip-rule="evenodd" d="M8.24353 6.38529L12.2582 1.87735C12.2658 1.85504 12.282 1.83667 12.3032 1.82627C12.3243 1.81587 12.3487 1.81431 12.371 1.82191C12.3933 1.82952 12.4117 1.84567 12.4221 1.86683C12.4325 1.88798 12.4341 1.9124 12.4265 1.93471V12.9044C12.4265 12.9298 12.4164 12.9541 12.3985 12.972C12.3805 12.9899 12.3562 13 12.3309 13H0.0955882C0.0702367 13 0.0459234 12.9899 0.0279971 12.972C0.0100709 12.9541 0 12.9298 0 12.9044V0.0955882C0 0.0702367 0.0100709 0.0459234 0.0279971 0.0279971C0.0459234 0.0100709 0.0702367 0 0.0955882 0H11.3521C11.3678 0.000655601 11.383 0.00550311 11.3962 0.0140386C11.4094 0.0225741 11.42 0.034486 11.427 0.0485361C11.4341 0.0625861 11.4372 0.0782613 11.4361 0.0939323C11.435 0.109603 11.4298 0.124698 11.4209 0.137647L8.22441 4.51941C8.21293 4.53308 8.19859 4.54407 8.18241 4.55161C8.16622 4.55915 8.14859 4.56306 8.13074 4.56306C8.11288 4.56306 8.09525 4.55915 8.07906 4.55161C8.06288 4.54407 8.04854 4.53308 8.03706 4.51941L6.89 3.25C6.87867 3.23421 6.86375 3.22135 6.84646 3.21248C6.82917 3.2036 6.81002 3.19897 6.79059 3.19897C6.77116 3.19897 6.75201 3.2036 6.73472 3.21248C6.71743 3.22135 6.7025 3.23421 6.69118 3.25L6.01441 4.11794C5.99704 4.13964 5.98757 4.16661 5.98757 4.19441C5.98757 4.22221 5.99704 4.24918 6.01441 4.27088L8.06382 6.38529C8.07528 6.39769 8.08918 6.40758 8.10464 6.41434C8.1201 6.42111 8.1368 6.4246 8.15368 6.4246C8.17056 6.4246 8.18725 6.42111 8.20271 6.41434C8.21818 6.40758 8.23207 6.39769 8.24353 6.38529ZM1.26941 10.8091C1.87356 11.34 2.6609 11.6143 3.46412 11.5738H3.46029C4.90941 11.5738 5.60912 10.8321 5.60912 9.86088C5.60912 8.64281 4.47869 8.37144 3.58712 8.15741C3.0066 8.01805 2.52735 7.90301 2.52735 7.56677C2.52735 7.24559 2.80265 7.02765 3.29206 7.02765C3.82485 7.02265 4.34318 7.20083 4.76029 7.53235C4.77262 7.54291 4.78699 7.55082 4.8025 7.5556C4.81801 7.56037 4.83434 7.56191 4.85047 7.56012C4.8666 7.55833 4.88219 7.55324 4.89628 7.54518C4.91036 7.53711 4.92264 7.52624 4.93235 7.51324L5.40265 6.85941C5.42391 6.83733 5.43579 6.80786 5.43579 6.77721C5.43579 6.74655 5.42391 6.71709 5.40265 6.695C4.83697 6.23524 4.12379 5.99616 3.39529 6.02206C2.12588 6.02206 1.36118 6.76382 1.36118 7.65471C1.36118 8.85258 2.44885 9.11085 3.33345 9.3209C3.93971 9.46486 4.45059 9.58617 4.45059 9.97176C4.45059 10.2776 4.14471 10.5682 3.51765 10.5682C2.92227 10.5701 2.34837 10.346 1.91176 9.94118C1.89826 9.93295 1.88325 9.9275 1.86761 9.92516C1.85197 9.92282 1.83602 9.92363 1.82069 9.92755C1.80537 9.93147 1.79099 9.93842 1.7784 9.94798C1.7658 9.95754 1.75524 9.96953 1.74735 9.98324L1.26941 10.6524C1.25033 10.674 1.23979 10.7019 1.23979 10.7307C1.23979 10.7596 1.25033 10.7875 1.26941 10.8091ZM10.1941 9.75336C10.1993 9.74013 10.2017 9.72597 10.2012 9.71176L10.1974 9.58941C10.1974 8.28559 9.39059 7.39471 8.20147 7.39471C7.92707 7.38994 7.65455 7.44086 7.40039 7.54438C7.14622 7.64791 6.91568 7.80188 6.7227 7.99701C6.52971 8.19214 6.37829 8.42437 6.27758 8.67966C6.17688 8.93496 6.12897 9.20802 6.13676 9.48235C6.12567 9.76343 6.17344 10.0437 6.27701 10.3052C6.38057 10.5668 6.53765 10.8038 6.73817 11.0011C6.93869 11.1983 7.17822 11.3515 7.4414 11.4508C7.70459 11.5501 7.98562 11.5933 8.26647 11.5776C8.82869 11.5918 9.37983 11.4198 9.83412 11.0882C9.85475 11.0717 9.86852 11.048 9.87275 11.0219C9.87699 10.9958 9.8714 10.969 9.85706 10.9468L9.51294 10.4459C9.50499 10.4336 9.49452 10.4232 9.48222 10.4153C9.46993 10.4073 9.4561 10.4021 9.44164 10.4C9.42718 10.3978 9.41243 10.3987 9.39835 10.4027C9.38428 10.4066 9.3712 10.4135 9.36 10.4229C9.07288 10.6249 8.73211 10.7367 8.38118 10.7441C8.11374 10.7662 7.84772 10.6874 7.63544 10.5233C7.42316 10.3591 7.28 10.1215 7.23412 9.85706C7.23359 9.85254 7.23396 9.84795 7.23521 9.84357C7.23647 9.83919 7.23858 9.83511 7.24142 9.83155C7.24427 9.82799 7.24779 9.82504 7.25179 9.82285C7.25579 9.82067 7.26018 9.8193 7.26471 9.81882H10.0941C10.1083 9.81936 10.1225 9.81696 10.1357 9.81177C10.1489 9.80658 10.161 9.79871 10.171 9.78866C10.1811 9.77861 10.1889 9.76659 10.1941 9.75336ZM7.54901 8.45657C7.72964 8.30002 7.96255 8.21715 8.20147 8.22441C8.4435 8.2086 8.682 8.28885 8.86524 8.44776C9.04848 8.60666 9.16169 8.8314 9.18029 9.07324C9.18084 9.07756 9.18045 9.08195 9.17916 9.08612C9.17787 9.09028 9.1757 9.09412 9.17281 9.09738C9.16991 9.10064 9.16635 9.10324 9.16236 9.10501C9.15838 9.10678 9.15406 9.10768 9.1497 9.10765H7.25706C7.25231 9.1078 7.24759 9.10684 7.24327 9.10485C7.23896 9.10286 7.23516 9.09989 7.2322 9.09618C7.22923 9.09247 7.22716 9.08812 7.22617 9.08347C7.22518 9.07883 7.22528 9.07401 7.22647 9.06941C7.25324 8.83189 7.36837 8.61312 7.54901 8.45657Z" fill="#231F20"/>
</svg>
