<svg width="50" height="56" viewBox="0 0 50 56" fill="none" xmlns="http://www.w3.org/2000/svg">
<path fill-rule="evenodd" clip-rule="evenodd" d="M29 4C29 4.42183 28.9347 4.82842 28.8137 5.21019L43.6152 13.7884C44.2811 13.2931 45.1063 13 46 13C48.2091 13 50 14.7909 50 17C50 18.8638 48.7252 20.4299 47 20.874V36.126C48.7252 36.5701 50 38.1362 50 40C50 42.2091 48.2091 44 46 44C45.1063 44 44.2811 43.7069 43.6152 43.2117L28.9881 51.6887C28.996 51.7915 29 51.8953 29 52C29 54.2091 27.2091 56 25 56C22.7909 56 21 54.2091 21 52C21 51.8953 21.004 51.7915 21.0119 51.6887L6.38481 43.2117C5.7189 43.7069 4.89368 44 4 44C1.79086 44 0 42.2091 0 40C0 38.1362 1.27477 36.5701 3 36.126V20.874C1.27477 20.4299 0 18.8638 0 17C0 14.7909 1.79086 13 4 13C4.89368 13 5.7189 13.2931 6.38481 13.7884L21.1863 5.21019C21.0653 4.82842 21 4.42183 21 4C21 1.79086 22.7909 0 25 0C27.2091 0 29 1.79086 29 4ZM7.65194 15.3656C7.8756 15.8646 8 16.4178 8 17C8 18.8638 6.72523 20.4299 5 20.874V36.126C6.72523 36.5701 8 38.1362 8 40C8 40.5822 7.8756 41.1354 7.65194 41.6344L21.6819 49.7654C22.2209 48.9666 23.0409 48.3729 24 48.126L24 7.87398C23.3338 7.70252 22.7348 7.36374 22.2504 6.90512L7.65194 15.3656ZM45 20.874C43.2748 20.4299 42 18.8638 42 17C42 16.4178 42.1244 15.8646 42.3481 15.3656L27.7496 6.90512C27.2652 7.36374 26.6662 7.70252 26 7.87398L26 48.126C26.9591 48.3729 27.7791 48.9666 28.3181 49.7654L42.3481 41.6344C42.1244 41.1354 42 40.5822 42 40C42 38.1362 43.2748 36.5701 45 36.126V20.874Z" fill="#212529"/>
</svg>
