<svg width="50" height="55" viewBox="0 0 50 55" fill="none" xmlns="http://www.w3.org/2000/svg">
<path fill-rule="evenodd" clip-rule="evenodd" d="M29 4C29 4.07677 28.9978 4.15303 28.9936 4.22873L43.1911 12.1521C43.9134 11.4397 44.9054 11 46 11C48.2091 11 50 12.7909 50 15C50 16.8638 48.7252 18.4299 47 18.874V36.126C48.7252 36.5701 50 38.1362 50 40C50 42.2091 48.2091 44 46 44C44.9054 44 43.9134 43.5603 43.1911 42.8479L28.9936 50.7713C28.9978 50.847 29 50.9232 29 51C29 53.2091 27.2091 55 25 55C22.7909 55 21 53.2091 21 51C21 50.9232 21.0022 50.847 21.0064 50.7713L6.80885 42.8479C6.08659 43.5603 5.09465 44 4 44C1.79086 44 0 42.2091 0 40C0 38.1362 1.27477 36.5701 3 36.126V18.874C1.27477 18.4299 0 16.8638 0 15C0 12.7909 1.79086 11 4 11C5.09465 11 6.08659 11.4397 6.80885 12.1521L21.0064 4.22873C21.0022 4.15303 21 4.07677 21 4C21 1.79086 22.7909 0 25 0C27.2091 0 29 1.79086 29 4ZM7.83767 13.8683C7.94331 14.2272 8 14.607 8 15C8 16.8638 6.72523 18.4299 5 18.874V36.126C6.72523 36.5701 8 38.1362 8 40C8 40.393 7.94331 40.7728 7.83767 41.1317L21.6373 48.833C22.1751 48.0001 23.014 47.3798 24 47.126L24 7.87398C23.014 7.6202 22.1751 6.99993 21.6373 6.16704L7.83767 13.8683ZM45 18.874C43.2748 18.4299 42 16.8638 42 15C42 14.607 42.0567 14.2272 42.1623 13.8683L28.3627 6.16704C27.8249 6.99993 26.986 7.6202 26 7.87398L26 47.126C26.986 47.3798 27.8249 48.0001 28.3627 48.833L42.1623 41.1317C42.0567 40.7728 42 40.393 42 40C42 38.1362 43.2748 36.5701 45 36.126V18.874Z" fill="white"/>
<path fill-rule="evenodd" clip-rule="evenodd" d="M29 4C29 4.07677 28.9978 4.15303 28.9936 4.22873L43.1911 12.1521C43.9134 11.4397 44.9054 11 46 11C48.2091 11 50 12.7909 50 15C50 16.8638 48.7252 18.4299 47 18.874V36.126C48.7252 36.5701 50 38.1362 50 40C50 42.2091 48.2091 44 46 44C44.9054 44 43.9134 43.5603 43.1911 42.8479L28.9936 50.7713C28.9978 50.847 29 50.9232 29 51C29 53.2091 27.2091 55 25 55C22.7909 55 21 53.2091 21 51C21 50.9232 21.0022 50.847 21.0064 50.7713L6.80885 42.8479C6.08659 43.5603 5.09465 44 4 44C1.79086 44 0 42.2091 0 40C0 38.1362 1.27477 36.5701 3 36.126V18.874C1.27477 18.4299 0 16.8638 0 15C0 12.7909 1.79086 11 4 11C5.09465 11 6.08659 11.4397 6.80885 12.1521L21.0064 4.22873C21.0022 4.15303 21 4.07677 21 4C21 1.79086 22.7909 0 25 0C27.2091 0 29 1.79086 29 4ZM7.83767 13.8683C7.94331 14.2272 8 14.607 8 15C8 16.8638 6.72523 18.4299 5 18.874V36.126C6.72523 36.5701 8 38.1362 8 40C8 40.393 7.94331 40.7728 7.83767 41.1317L21.6373 48.833C22.1751 48.0001 23.014 47.3798 24 47.126L24 7.87398C23.014 7.6202 22.1751 6.99993 21.6373 6.16704L7.83767 13.8683ZM45 18.874C43.2748 18.4299 42 16.8638 42 15C42 14.607 42.0567 14.2272 42.1623 13.8683L28.3627 6.16704C27.8249 6.99993 26.986 7.6202 26 7.87398L26 47.126C26.986 47.3798 27.8249 48.0001 28.3627 48.833L42.1623 41.1317C42.0567 40.7728 42 40.393 42 40C42 38.1362 43.2748 36.5701 45 36.126V18.874Z" fill="#212529" fill-opacity="0.7"/>
</svg>
