<svg width="16" height="16" viewBox="0 0 16 16" fill="none" xmlns="http://www.w3.org/2000/svg">
<path fill-rule="evenodd" clip-rule="evenodd" d="M8.5 2.68309V4.9169L10.3333 6.0169L12.1667 4.9169V2.68309L10.3333 1.58309L8.5 2.68309ZM13.1667 4.9169V2.1169L10.3333 0.416904L8 1.8169L5.66667 0.416904L2.83334 2.1169V4.9169L0.5 6.31691V9.6831L2.83334 11.0831V13.8831L5.66667 15.5831L8 14.1831L10.3333 15.5831L13.1667 13.8831V11.0831L15.5 9.6831V6.31691L13.1667 4.9169ZM12.1667 11.0831L10.3333 9.98309L8.5 11.0831V13.3169L10.3333 14.4169L12.1667 13.3169V11.0831ZM8 10.2169L9.83334 9.1169V6.8831L8 5.7831L6.16667 6.8831V9.1169L8 10.2169ZM10.8333 9.11691L12.6667 10.2169L14.5 9.11691V6.8831L12.6667 5.7831L10.8333 6.8831V9.11691ZM7.5 13.3169V11.0831L5.66667 9.98309L3.83334 11.0831V13.3169L5.66667 14.4169L7.5 13.3169ZM5.16667 9.11691L3.33333 10.2169L1.5 9.11691V6.8831L3.33333 5.7831L5.16667 6.8831V9.11691Z" fill="#231F20"/>
</svg>
