<svg width="16" height="15" viewBox="0 0 16 15" fill="none" xmlns="http://www.w3.org/2000/svg">
<path fill-rule="evenodd" clip-rule="evenodd" d="M11.5087 14.8376C11.7713 14.9881 12.0966 15.0046 12.3787 14.8689L15.4688 13.3829C15.7935 13.2268 16 12.8984 16 12.5381V12.5378C16 12.5372 16 12.5365 16 12.5359V12.5C16 12.5005 16 12.5011 16 12.5016V2.49852C16 2.49905 16 2.49959 16 2.50012V2.46424C16 2.46361 16 2.46298 16 2.46234V2.46198C16 2.10168 15.7935 1.77325 15.4688 1.61711L12.3787 0.131045C12.0208 -0.0410499 11.5933 0.0317103 11.3125 0.312494C11.3166 0.308429 11.3207 0.304446 11.3248 0.300543C11.3207 0.304523 11.3166 0.308547 11.3125 0.312614L5.39689 5.70626L2.82007 3.75142C2.58021 3.56946 2.24469 3.58437 2.02191 3.7869L1.19546 4.53822C0.922959 4.78595 0.922646 5.2144 1.19479 5.46254L3.4295 7.50006L1.19479 9.53759C0.922646 9.78571 0.922959 10.2142 1.19546 10.4619L2.02191 11.2132C2.24469 11.4157 2.58021 11.4307 2.82007 11.2487L5.39689 9.29386L11.3125 14.6875L11.3125 14.6875C11.3476 14.7226 11.385 14.7544 11.4243 14.783C11.4515 14.8028 11.4797 14.821 11.5087 14.8376ZM12.25 4.09495L7.76145 7.50006L12.25 10.9052V4.09495Z" fill="#231F20"/>
</svg>
